<?xml version="1.0" encoding="UTF-8" standalone="no"?>
<!DOCTYPE svg PUBLIC "-//W3C//DTD SVG 1.1//EN" "http://www.w3.org/Graphics/SVG/1.1/DTD/svg11.dtd">
<svg width="537.60" height="372.00" viewBox="0.00 0.00 4480.00 3100.00" xmlns="http://www.w3.org/2000/svg" xmlns:xlink="http://www.w3.org/1999/xlink">
<g stroke-linecap="round" id="Layer_3_2">
<path d="M2038.12,1280.55 L2042.44,1278.04 L2046.76,1275.52 L2051.08,1273.00 L2055.40,1270.48 L2555.36,979.14 L2559.68,976.62 L2564.00,974.10 L2568.32,971.58 L2572.64,969.07" fill="none" stroke="rgb(0, 0, 0)" stroke-width="30.00" stroke-opacity="1.00" stroke-linejoin="round"/>
<path d="M2569.00,965.00 L2574.00,965.00 L2579.00,965.00 L2584.00,965.00 L2589.00,965.00 L2763.00,965.00 L2768.00,965.00 L2773.00,965.00 L2778.00,965.00 L2783.00,965.00 L2788.00,965.00" fill="none" stroke="rgb(0, 0, 0)" stroke-width="30.00" stroke-opacity="1.00" stroke-linejoin="round"/>
<path d="M2799.53,969.07 L2804.08,967.00 L2808.63,964.93 L2813.18,962.86 L2817.73,960.79 L2822.29,958.72 L2988.27,883.27 L2992.82,881.21 L2997.37,879.14 L3001.93,877.07 L3006.48,875.00 L3011.03,872.93" fill="none" stroke="rgb(0, 0, 0)" stroke-width="30.00" stroke-opacity="1.00" stroke-linejoin="round"/>
<path d="M3022.57,865.24 L3026.22,861.82 L3029.87,858.41 L3033.52,854.99 L3037.17,851.58 L3040.82,848.16 L3123.52,770.80 L3127.17,767.38 L3130.82,763.97 L3134.47,760.55 L3138.13,757.13 L3141.78,753.72" fill="none" stroke="rgb(0, 0, 0)" stroke-width="30.00" stroke-opacity="1.00" stroke-linejoin="round"/>
<path d="M3149.47,746.03 L3153.41,742.96 L3157.36,739.89 L3161.31,736.82 L3165.25,733.75 L3237.51,677.55 L3241.46,674.48 L3245.40,671.41 L3249.35,668.34 L3253.30,665.27" fill="none" stroke="rgb(0, 0, 0)" stroke-width="30.00" stroke-opacity="1.00" stroke-linejoin="round"/>
<path d="M3257.14,665.27 L3255.79,670.09 L3254.43,674.90 L3253.08,679.71 L3251.73,684.53 L3229.30,764.26 L3227.95,769.08 L3226.59,773.89 L3225.24,778.70 L3223.89,783.52 L3222.53,788.33" fill="none" stroke="rgb(0, 0, 0)" stroke-width="30.00" stroke-opacity="1.00" stroke-linejoin="round"/>
<path d="M3218.69,796.02 L3218.38,801.01 L3218.08,806.00 L3217.78,810.99 L3217.48,815.98 L3212.21,902.96 L3211.90,907.95 L3211.60,912.94 L3211.30,917.93 L3211.00,922.92" fill="none" stroke="rgb(0, 0, 0)" stroke-width="30.00" stroke-opacity="1.00" stroke-linejoin="round"/>
<path d="M3203.30,934.46 L3200.53,938.62 L3197.76,942.78 L3194.98,946.94 L3192.21,951.10 L3189.44,955.26 L3145.18,1021.65 L3142.41,1025.81 L3139.63,1029.97 L3136.86,1034.13 L3134.09,1038.29" fill="none" stroke="rgb(0, 0, 0)" stroke-width="30.00" stroke-opacity="1.00" stroke-linejoin="round"/>
<path d="M3126.39,1049.82 L3122.08,1052.36 L3117.78,1054.89 L3113.47,1057.43 L3109.16,1059.96 L3104.85,1062.50 L3017.20,1114.06 L3012.89,1116.59 L3008.58,1119.13 L3004.27,1121.66 L2999.96,1124.20 L2995.65,1126.73" fill="none" stroke="rgb(0, 0, 0)" stroke-width="30.00" stroke-opacity="1.00" stroke-linejoin="round"/>
<path d="M2972.57,1138.27 L2974.81,1142.74 L2977.05,1147.21 L2979.28,1151.69 L2981.52,1156.16 L2983.75,1160.63 L3003.69,1200.51 L3005.93,1204.98 L3008.17,1209.45 L3010.40,1213.93 L3012.64,1218.40 L3014.88,1222.87" fill="none" stroke="rgb(0, 0, 0)" stroke-width="30.00" stroke-opacity="1.00" stroke-linejoin="round"/>
<path d="M2791.84,969.07 L2790.60,973.91 L2789.37,978.76 L2788.13,983.60 L2786.90,988.45 L2785.66,993.29 L2748.02,1140.96 L2746.78,1145.81 L2745.55,1150.65 L2744.31,1155.50 L2743.08,1160.34 L2741.84,1165.19" fill="none" stroke="rgb(0, 0, 0)" stroke-width="30.00" stroke-opacity="1.00" stroke-linejoin="round"/>
<path d="M2741.84,1180.57 L2745.11,1184.35 L2748.38,1188.14 L2751.65,1191.92 L2754.92,1195.71 L2801.84,1250.03 L2805.10,1253.82 L2808.37,1257.60 L2811.64,1261.39 L2814.91,1265.17" fill="none" stroke="rgb(0, 0, 0)" stroke-width="30.00" stroke-opacity="1.00" stroke-linejoin="round"/>
<path d="M3068.71,1095.97 L3071.84,1099.87 L3074.96,1103.78 L3078.08,1107.68 L3081.21,1111.59 L3210.04,1272.63 L3213.16,1276.53 L3216.29,1280.44 L3219.41,1284.34 L3222.53,1288.24" fill="none" stroke="rgb(0, 0, 0)" stroke-width="30.00" stroke-opacity="1.00" stroke-linejoin="round"/>
<path d="M3214.84,1299.78 L3210.68,1302.55 L3206.52,1305.33 L3202.36,1308.10 L3198.20,1310.87 L3196.87,1311.76 L3195.46,1312.70 L3192.71,1314.53 L3188.55,1317.31 L3184.39,1320.08 L3180.23,1322.85" fill="none" stroke="rgb(0, 0, 0)" stroke-width="30.00" stroke-opacity="1.00" stroke-linejoin="round"/>
<path d="M3176.39,1342.08 L3179.52,1345.97 L3182.66,1349.87 L3185.80,1353.76 L3188.93,1357.66 L3272.22,1461.05 L3275.36,1464.94 L3278.50,1468.84 L3281.63,1472.73 L3284.77,1476.63 L3287.91,1480.52" fill="none" stroke="rgb(0, 0, 0)" stroke-width="30.00" stroke-opacity="1.00" stroke-linejoin="round"/>
<path d="M3291.75,1480.52 L3296.22,1478.28 L3300.70,1476.05 L3305.17,1473.81 L3309.64,1471.57 L3323.23,1464.78 L3327.70,1462.54 L3332.17,1460.31 L3336.64,1458.07 L3341.12,1455.84 L3345.59,1453.60" fill="none" stroke="rgb(0, 0, 0)" stroke-width="30.00" stroke-opacity="1.00" stroke-linejoin="round"/>
<path d="M3353.28,1453.60 L3352.98,1458.59 L3352.67,1463.58 L3352.37,1468.57 L3352.07,1473.56 L3347.10,1555.55 L3346.80,1560.54 L3346.50,1565.53 L3346.19,1570.52 L3345.89,1575.51 L3345.59,1580.50" fill="none" stroke="rgb(0, 0, 0)" stroke-width="30.00" stroke-opacity="1.00" stroke-linejoin="round"/>
<path d="M3349.43,1580.50 L3346.31,1584.41 L3343.19,1588.31 L3340.06,1592.22 L3336.94,1596.12 L3333.82,1600.02 L3238.87,1718.70 L3235.75,1722.61 L3232.62,1726.51 L3229.50,1730.42 L3226.38,1734.32" fill="none" stroke="rgb(0, 0, 0)" stroke-width="30.00" stroke-opacity="1.00" stroke-linejoin="round"/>
<path d="M3214.84,1738.17 L3210.13,1736.51 L3205.41,1734.85 L3200.69,1733.19 L3195.98,1731.53 L3191.26,1729.86 L2960.68,1648.67 L2955.96,1647.01 L2951.24,1645.35 L2946.53,1643.69 L2941.81,1642.03" fill="none" stroke="rgb(0, 0, 0)" stroke-width="30.00" stroke-opacity="1.00" stroke-linejoin="round"/>
<path d="M2065.04,1418.99 L2061.27,1415.71 L2057.49,1412.42 L2053.72,1409.14 L2049.95,1405.86 L1960.91,1328.30 L1957.14,1325.01 L1953.37,1321.73 L1949.60,1318.45 L1945.82,1315.16" fill="none" stroke="rgb(0, 0, 0)" stroke-width="30.00" stroke-opacity="1.00" stroke-linejoin="round"/>
<path d="M1938.13,1307.47 L1936.74,1312.27 L1935.35,1317.07 L1933.95,1321.88 L1932.56,1326.68 L1931.16,1331.48 L1909.10,1407.48 L1907.71,1412.28 L1906.31,1417.08 L1904.92,1421.88 L1903.52,1426.68" fill="none" stroke="rgb(0, 0, 0)" stroke-width="30.00" stroke-opacity="1.00" stroke-linejoin="round"/>
<path d="M1903.52,1434.37 L1905.92,1438.76 L1908.31,1443.15 L1910.71,1447.54 L1913.10,1451.93 L1915.50,1456.32 L1917.02,1459.12 L1917.46,1459.91 L1919.41,1463.51 L1921.81,1467.89 L1924.20,1472.28 L1926.60,1476.67" fill="none" stroke="rgb(0, 0, 0)" stroke-width="30.00" stroke-opacity="1.00" stroke-linejoin="round"/>
<path d="M2061.19,1369.00 L2066.16,1369.58 L2071.12,1370.16 L2076.09,1370.74 L2081.05,1371.32 L2337.43,1401.29 L2342.40,1401.87 L2347.36,1402.45 L2352.33,1403.03 L2357.29,1403.61" fill="none" stroke="rgb(0, 0, 0)" stroke-width="30.00" stroke-opacity="1.00" stroke-linejoin="round"/>
<path d="M2364.98,1399.76 L2369.78,1401.19 L2374.57,1402.62 L2379.36,1404.05 L2384.15,1405.48 L2565.01,1459.42 L2569.80,1460.85 L2574.60,1462.28 L2579.39,1463.71 L2584.18,1465.14" fill="none" stroke="rgb(0, 0, 0)" stroke-width="30.00" stroke-opacity="1.00" stroke-linejoin="round"/>
<path d="M2580.33,1461.29 L2584.78,1463.58 L2589.22,1465.87 L2593.67,1468.16 L2598.11,1470.45 L2602.55,1472.75 L2931.13,1642.11 L2935.57,1644.40 L2940.01,1646.69 L2944.46,1648.98 L2948.90,1651.28 L2953.35,1653.57" fill="none" stroke="rgb(0, 0, 0)" stroke-width="30.00" stroke-opacity="1.00" stroke-linejoin="round"/>
<path d="M2911.05,1634.34 L2908.80,1638.80 L2906.55,1643.27 L2904.30,1647.73 L2902.05,1652.20 L2680.03,2092.70 L2677.78,2097.17 L2675.53,2101.63 L2673.28,2106.10 L2671.03,2110.56 L2668.78,2115.03" fill="none" stroke="rgb(0, 0, 0)" stroke-width="30.00" stroke-opacity="1.00" stroke-linejoin="round"/>
<path d="M2195.78,2091.95 L2199.46,2095.34 L2203.14,2098.73 L2206.82,2102.12 L2210.49,2105.50 L2214.17,2108.89 L2323.52,2209.61 L2327.20,2213.00 L2330.88,2216.38 L2334.56,2219.77 L2338.23,2223.16 L2341.91,2226.55" fill="none" stroke="rgb(0, 0, 0)" stroke-width="30.00" stroke-opacity="1.00" stroke-linejoin="round"/>
<path d="M2188.09,2080.42 L2183.62,2078.18 L2179.15,2075.95 L2174.68,2073.71 L2170.20,2071.47 L2165.73,2069.24 L2072.01,2022.38 L2067.54,2020.14 L2063.07,2017.91 L2058.60,2015.67 L2054.13,2013.43 L2049.65,2011.20" fill="none" stroke="rgb(0, 0, 0)" stroke-width="30.00" stroke-opacity="1.00" stroke-linejoin="round"/>
<path d="M2045.81,2007.35 L2041.01,2008.75 L2036.20,2010.14 L2031.40,2011.54 L2026.60,2012.93 L2021.80,2014.32 L1945.80,2036.39 L1941.00,2037.78 L1936.20,2039.17 L1931.40,2040.57 L1926.60,2041.96" fill="none" stroke="rgb(0, 0, 0)" stroke-width="30.00" stroke-opacity="1.00" stroke-linejoin="round"/>
<path d="M1918.91,2041.96 L1913.97,2041.14 L1909.04,2040.32 L1904.11,2039.50 L1899.18,2038.67 L1894.25,2037.85 L1661.76,1999.10 L1656.83,1998.28 L1651.89,1997.46 L1646.96,1996.64 L1642.03,1995.82" fill="none" stroke="rgb(0, 0, 0)" stroke-width="30.00" stroke-opacity="1.00" stroke-linejoin="round"/>
<path d="M1626.65,1991.97 L1622.42,1989.30 L1618.20,1986.62 L1613.98,1983.95 L1609.75,1981.27 L1605.53,1978.59 L1528.18,1929.61 L1523.96,1926.93 L1519.73,1924.26 L1515.51,1921.58 L1511.28,1918.91" fill="none" stroke="rgb(0, 0, 0)" stroke-width="30.00" stroke-opacity="1.00" stroke-linejoin="round"/>
<path d="M1507.44,1918.91 L1506.94,1913.93 L1506.44,1908.96 L1505.94,1903.98 L1505.45,1899.01 L1502.23,1866.87 L1501.74,1861.90 L1501.24,1856.92 L1500.74,1851.95 L1500.24,1846.97 L1499.75,1842.00" fill="none" stroke="rgb(0, 0, 0)" stroke-width="30.00" stroke-opacity="1.00" stroke-linejoin="round"/>
<path d="M1511.28,1834.31 L1515.81,1832.19 L1520.34,1830.08 L1524.88,1827.96 L1529.41,1825.85 L1533.94,1823.73 L1546.31,1817.96 L1550.84,1815.84 L1555.37,1813.73 L1559.90,1811.62 L1564.43,1809.50 L1568.97,1807.39" fill="none" stroke="rgb(0, 0, 0)" stroke-width="30.00" stroke-opacity="1.00" stroke-linejoin="round"/>
<path d="M1576.66,1795.85 L1580.34,1792.47 L1584.02,1789.08 L1587.70,1785.69 L1591.38,1782.31 L1595.05,1778.92 L1658.08,1720.94 L1661.76,1717.56 L1665.43,1714.17 L1669.11,1710.79 L1672.79,1707.40" fill="none" stroke="rgb(0, 0, 0)" stroke-width="30.00" stroke-opacity="1.00" stroke-linejoin="round"/>
<path d="M1676.64,1684.33 L1678.88,1679.86 L1681.11,1675.39 L1683.35,1670.91 L1685.58,1666.44 L1687.82,1661.97 L1713.84,1609.93 L1716.08,1605.46 L1718.31,1600.98 L1720.55,1596.51 L1722.79,1592.04" fill="none" stroke="rgb(0, 0, 0)" stroke-width="30.00" stroke-opacity="1.00" stroke-linejoin="round"/>
<path d="M1730.48,1572.81 L1734.58,1569.95 L1738.68,1567.09 L1742.78,1564.23 L1746.88,1561.37 L1879.43,1468.89 L1883.53,1466.03 L1887.63,1463.17 L1891.73,1460.31 L1895.83,1457.45" fill="none" stroke="rgb(0, 0, 0)" stroke-width="30.00" stroke-opacity="1.00" stroke-linejoin="round"/>
<path d="M1749.70,1707.40 L1749.22,1708.37 L1748.74,1709.33 L1748.26,1710.29 L1747.78,1711.25 L1747.54,1711.73 L1747.30,1712.21 L1746.82,1713.17 L1746.34,1714.13 L1745.86,1715.09" fill="none" stroke="rgb(0, 0, 0)" stroke-width="30.00" stroke-opacity="1.00" stroke-linejoin="round"/>
<path d="M3099.00,1350.00 L3099.00,1350.50 L3099.00,1351.00 L3099.00,1351.50 L3099.00,1352.00 L3099.00,1353.00 L3099.00,1353.50 L3099.00,1354.00" fill="none" stroke="rgb(0, 0, 0)" stroke-width="50.00" stroke-opacity="1.00" stroke-linejoin="round"/>
<path d="M1750.00,1719.00 L1750.00,1719.50 L1750.00,1720.00 L1750.00,1720.50 L1750.00,1721.00 L1750.00,1722.50 L1750.00,1723.00" fill="none" stroke="rgb(0, 0, 0)" stroke-width="50.00" stroke-opacity="1.00" stroke-linejoin="round"/>
<path d="M1530.51,1907.37 L1535.35,1906.10 L1540.18,1904.82 L1545.02,1903.55 L1549.85,1902.28 L1554.69,1901.01 L1579.40,1894.50 L1584.23,1893.23 L1589.07,1891.96 L1593.90,1890.69 L1598.74,1889.41 L1603.58,1888.14" fill="none" stroke="rgb(0, 0, 0)" stroke-width="30.00" stroke-opacity="1.00" stroke-linejoin="round"/>
<path d="M1611.27,1884.30 L1609.68,1879.55 L1608.10,1874.81 L1606.52,1870.07 L1604.94,1865.32 L1603.36,1860.58 L1596.10,1838.79 L1594.52,1834.05 L1592.94,1829.31 L1591.36,1824.56 L1589.77,1819.82 L1588.19,1815.08" fill="none" stroke="rgb(0, 0, 0)" stroke-width="30.00" stroke-opacity="1.00" stroke-linejoin="round"/>
<path d="M1542.05,1857.38 C1542.05,1857.38 1565.58,1837.40 1565.58,1837.40 C1565.58,1837.40 1534.10,1860.20 1534.10,1860.20 C1534.10,1860.20 1558.35,1844.79 1558.35,1844.79 C1558.35,1844.79 1533.36,1864.95 1533.36,1864.95 C1533.36,1864.95 1553.85,1856.72 1553.85,1856.72 C1553.85,1856.72 1533.43,1874.30 1533.43,1874.30 C1533.43,1874.30 1562.70,1857.38 1562.70,1857.38 C1562.70,1857.38 1535.78,1877.49 1535.78,1877.49 C1535.78,1877.49 1570.04,1864.92 1570.04,1864.92 C1570.04,1864.92 1538.36,1883.91 1538.36,1883.91 C1538.36,1883.91 1578.35,1868.26 1578.35,1868.26 C1578.35,1868.26 1553.28,1884.84 1553.28,1884.84 C1553.28,1884.84 1598.31,1865.84 1598.31,1865.84 C1591.41,1869.37 1574.47,1877.83 1569.02,1879.90 C1565.89,1881.05 1562.72,1880.34 1561.58,1879.80 C1561.58,1879.80 1571.93,1867.42 1571.93,1867.42 C1569.78,1867.35 1554.09,1874.83 1546.30,1878.60 C1544.87,1879.30 1542.34,1880.53 1541.24,1881.07 C1541.24,1881.07 1575.20,1854.65 1575.20,1854.65 C1575.20,1854.65 1544.97,1865.84 1544.97,1865.84 C1546.99,1862.39 1549.43,1859.00 1552.64,1855.90 C1563.23,1845.74 1565.36,1843.02 1566.20,1841.69 C1566.20,1841.69 1525.70,1867.18 1525.70,1867.18 C1525.71,1865.11 1528.08,1860.92 1531.36,1856.41 C1541.06,1843.66 1551.48,1829.97 1552.20,1829.04 C1549.75,1829.71 1546.82,1831.59 1542.11,1835.33 C1535.14,1841.04 1521.54,1852.08 1518.47,1853.23 C1518.47,1853.23 1527.13,1829.81 1527.13,1829.81 C1521.68,1841.10 1516.57,1852.54 1514.88,1859.70 C1514.64,1860.75 1513.36,1867.23 1513.17,1868.22 C1513.17,1868.22 1522.28,1843.53 1522.28,1843.53 C1522.28,1843.53 1526.59,1877.14 1526.59,1877.14 C1526.59,1877.14 1530.51,1855.11 1530.51,1855.11 C1530.51,1855.11 1530.59,1885.60 1530.59,1885.60 C1530.59,1885.60 1537.36,1853.53 1537.36,1853.53 C1535.25,1860.25 1530.29,1876.54 1529.14,1882.03 C1528.23,1886.20 1527.06,1888.79 1525.47,1890.33 C1522.63,1876.44 1522.95,1861.36 1522.97,1860.19 C1522.97,1860.19 1524.20,1860.38 1524.20,1860.38 C1524.20,1860.38 1526.13,1874.61 1526.13,1874.61 C1526.13,1874.61 1522.43,1851.19 1522.43,1851.19 C1522.16,1858.09 1521.51,1876.08 1522.23,1880.50 C1522.74,1883.42 1524.84,1889.90 1525.58,1890.45 C1526.81,1891.31 1530.19,1891.17 1532.04,1890.48 C1537.88,1888.25 1562.91,1874.79 1566.12,1873.14 C1566.12,1873.14 1546.28,1879.07 1546.28,1879.07 C1553.32,1876.51 1567.89,1871.18 1575.43,1868.41 C1579.00,1867.08 1580.69,1865.81 1580.96,1863.92 C1581.13,1862.53 1580.78,1858.53 1580.40,1855.97 C1579.70,1851.73 1577.56,1848.16 1576.70,1847.15 C1576.70,1847.15 1582.19,1860.49 1582.19,1860.49 C1582.91,1859.83 1583.00,1859.07 1582.48,1856.71 C1580.72,1847.99 1577.90,1834.23 1576.85,1829.19 C1578.27,1832.45 1582.41,1842.14 1582.42,1842.46 C1582.44,1842.76 1582.23,1843.17 1581.81,1843.69 C1576.91,1838.99 1563.44,1826.19 1560.89,1824.46 C1558.27,1822.73 1555.99,1821.92 1554.21,1822.12 C1550.19,1822.71 1545.03,1824.61 1542.24,1827.33 C1538.92,1830.68 1535.14,1836.22 1533.85,1839.69 C1533.20,1841.53 1532.85,1844.60 1533.11,1846.29 C1533.39,1847.89 1534.69,1850.81 1535.59,1851.80 C1536.52,1852.76 1539.50,1854.30 1541.07,1854.63 C1544.27,1855.25 1552.14,1853.79 1555.50,1852.48 C1559.11,1851.03 1565.26,1846.52 1568.06,1843.53 C1570.59,1840.77 1573.72,1835.35 1574.80,1832.23 C1575.78,1829.25 1575.58,1823.00 1574.54,1821.65 C1573.74,1820.70 1571.63,1819.91 1569.85,1819.85 C1568.11,1819.85 1565.59,1820.84 1563.54,1822.31 C1562.05,1823.41 1553.91,1832.11 1553.70,1832.61 C1553.49,1833.12 1553.23,1834.32 1552.89,1836.23 C1552.89,1836.23 1554.43,1836.69 1554.43,1836.69 C1555.42,1835.98 1556.83,1834.75 1557.35,1833.92 C1557.83,1833.10 1558.68,1829.85 1558.20,1829.23 C1557.92,1828.89 1557.03,1828.28 1555.51,1827.42 C1552.12,1830.00 1547.76,1835.07 1545.34,1839.50 C1543.40,1843.18 1542.08,1847.40 1540.97,1851.80 C1543.57,1851.26 1544.88,1850.66 1546.21,1849.21 C1550.92,1844.02 1557.07,1835.00 1558.66,1832.65 C1557.08,1835.25 1553.19,1841.66 1551.25,1845.10 C1549.06,1849.02 1548.33,1853.42 1548.58,1854.61 C1549.62,1855.41 1551.91,1855.91 1553.89,1855.53 C1555.89,1855.13 1568.88,1847.31 1571.50,1845.00 C1571.24,1846.27 1570.59,1849.46 1570.21,1851.37 C1569.73,1853.65 1570.06,1854.98 1571.27,1856.84 C1571.27,1856.84 1576.04,1852.49 1576.04,1852.49 C1576.50,1854.01 1576.89,1856.55 1576.54,1857.96 C1576.19,1859.36 1574.31,1862.75 1572.93,1864.95 C1572.93,1864.95 1573.27,1864.84 1573.27,1864.84" fill="none" stroke="rgb(0, 0, 0)" stroke-width="20.00" stroke-opacity="1.00" stroke-linejoin="round"/>
<path d="M1744.50,2263.50 C1744.96,2263.21 1839.37,2263.58 1878.25,2263.92 C1891.61,2264.13 1909.73,2264.46 1910.14,2264.45 C1912.29,2264.41 1913.08,2264.79 1912.97,2266.04 C1912.29,2272.32 1912.54,2308.23 1912.50,2308.50 C1912.25,2310.07 1911.26,2310.63 1909.08,2310.52 C1908.65,2310.49 1863.79,2310.46 1863.50,2310.50 C1861.92,2310.76 1861.37,2311.75 1861.49,2313.86 C1861.53,2314.28 1861.31,2403.47 1861.25,2441.83 C1861.25,2479.52 1861.42,2566.98 1861.50,2567.50 C1861.69,2568.73 1862.33,2572.94 1861.50,2573.50 C1860.99,2573.82 1798.35,2574.54 1798.00,2574.55 C1795.76,2574.60 1794.72,2574.18 1794.49,2572.96 C1794.45,2572.68 1794.50,2487.73 1794.47,2451.07 C1794.35,2411.55 1793.94,2344.94 1793.65,2317.85 C1793.62,2316.58 1793.54,2313.25 1793.55,2312.85 C1793.59,2310.77 1793.08,2309.43 1791.99,2309.32 C1791.13,2309.26 1784.59,2310.59 1779.56,2310.75 C1771.88,2310.82 1748.64,2310.48 1747.92,2310.51 C1745.77,2310.54 1743.93,2310.22 1743.50,2309.50 C1743.47,2309.45 1743.73,2271.17 1743.50,2269.50 C1743.19,2266.91 1743.52,2264.16 1744.50,2263.50 Z" fill="none" stroke="rgb(0, 0, 0)" stroke-width="24.80" stroke-opacity="1.00" stroke-linejoin="round"/>
<path d="M2414.50,2263.50 C2415.37,2263.00 2469.76,2263.60 2470.50,2263.50 C2473.06,2263.18 2475.85,2263.52 2476.50,2264.50 C2476.62,2264.69 2476.92,2347.65 2476.94,2382.75 C2476.84,2424.19 2476.65,2497.48 2476.57,2529.34 C2476.54,2541.18 2476.50,2561.23 2476.39,2563.67 C2476.27,2566.68 2477.05,2573.36 2475.50,2574.50 C2475.05,2574.81 2454.59,2574.74 2445.58,2574.59 C2438.02,2574.53 2415.38,2575.23 2415.15,2575.14 C2414.21,2574.72 2413.03,2572.60 2412.81,2571.06 C2412.51,2568.61 2413.52,2557.76 2413.50,2557.50 C2413.31,2555.99 2412.27,2555.38 2410.10,2555.43 C2409.67,2555.44 2397.39,2555.34 2396.50,2555.50 C2395.03,2555.79 2393.90,2556.20 2393.13,2556.74 C2392.10,2557.47 2390.08,2559.94 2388.36,2561.27 C2384.41,2564.39 2378.86,2568.55 2375.58,2570.67 C2371.62,2573.18 2366.47,2575.27 2361.02,2576.66 C2359.47,2577.07 2356.56,2578.49 2355.54,2578.87 C2353.88,2579.48 2352.01,2579.50 2350.13,2579.04 C2346.82,2578.20 2339.80,2576.33 2335.98,2574.93 C2332.29,2573.54 2325.94,2569.40 2323.23,2567.03 C2320.40,2564.51 2315.56,2558.77 2314.01,2556.11 C2312.40,2553.30 2309.59,2547.37 2308.81,2545.06 C2306.53,2538.06 2305.43,2523.46 2305.11,2512.62 C2304.72,2482.65 2305.12,2413.18 2305.42,2381.83 C2305.51,2375.70 2306.74,2360.27 2307.82,2355.20 C2308.44,2352.36 2311.40,2345.58 2313.11,2342.66 C2315.29,2339.03 2318.95,2334.88 2322.17,2332.18 C2324.73,2330.07 2330.90,2325.89 2333.50,2324.50 C2335.88,2323.24 2343.88,2319.95 2346.61,2319.28 C2350.13,2318.46 2356.87,2318.59 2360.50,2319.54 C2365.67,2320.93 2382.69,2328.73 2385.50,2331.50 C2386.86,2332.83 2389.32,2336.53 2389.55,2336.71 C2390.77,2337.64 2394.50,2338.80 2396.36,2338.98 C2400.26,2339.28 2410.15,2338.83 2411.21,2338.79 C2413.22,2338.66 2414.19,2338.07 2414.09,2336.87 C2414.01,2336.06 2413.43,2334.12 2413.46,2332.03 C2413.51,2316.12 2413.68,2271.98 2413.50,2270.50 C2413.05,2266.33 2413.26,2264.27 2414.50,2263.50 Z" fill="none" stroke="rgb(0, 0, 0)" stroke-width="24.80" stroke-opacity="1.00" stroke-linejoin="round"/>
<path d="M2939.50,2287.50 C2939.71,2287.46 2994.18,2287.73 2995.50,2287.50 C2998.45,2287.03 3000.73,2287.31 3001.50,2288.50 C3002.12,2289.53 3001.45,2326.01 3001.44,2326.06 C3001.43,2328.21 3001.75,2329.38 3002.67,2329.56 C3003.07,2329.63 3022.89,2329.33 3023.50,2329.50 C3024.51,2329.83 3024.74,2331.04 3024.50,2333.50 C3023.86,2339.12 3025.40,2351.50 3025.32,2351.78 C3025.03,2352.72 3022.71,2353.86 3021.17,2354.05 C3018.40,2354.30 3009.48,2353.76 3007.50,2353.50 C3003.91,2353.07 3001.89,2353.33 3001.50,2354.50 C3001.32,2355.13 3001.65,2449.23 3001.92,2489.29 C3002.07,2504.82 3002.49,2541.23 3003.06,2544.01 C3003.47,2545.83 3004.89,2547.68 3006.50,2548.50 C3008.25,2549.33 3018.97,2550.82 3020.50,2550.50 C3021.88,2550.22 3023.18,2549.50 3024.58,2549.40 C3025.91,2549.33 3026.67,2550.88 3026.78,2552.89 C3027.02,2564.44 3026.63,2574.25 3026.50,2574.50 C3026.12,2575.18 3022.31,2574.46 3017.15,2574.28 C3001.34,2573.96 2975.35,2573.26 2970.77,2571.92 C2967.52,2570.90 2963.22,2569.20 2959.64,2567.31 C2956.48,2565.61 2950.29,2560.59 2948.50,2558.50 C2947.05,2556.78 2942.58,2549.31 2941.50,2546.50 C2939.81,2541.99 2938.52,2530.02 2938.47,2521.18 C2938.46,2490.43 2938.56,2421.99 2938.65,2384.30 C2938.60,2371.81 2938.56,2354.74 2938.50,2354.50 C2938.26,2353.63 2937.02,2353.39 2934.50,2353.50 C2931.69,2353.66 2922.09,2353.38 2920.50,2352.50 C2919.67,2351.99 2919.23,2351.43 2919.16,2350.80 C2919.11,2349.89 2920.27,2346.91 2920.50,2344.50 C2920.74,2342.12 2920.27,2331.19 2920.50,2330.50 C2920.76,2329.82 2921.23,2329.41 2921.91,2329.28 C2922.76,2329.15 2931.33,2329.33 2932.50,2329.50 C2935.89,2329.96 2937.78,2329.72 2938.50,2328.50 C2939.00,2327.58 2938.88,2306.48 2938.75,2297.42 C2938.60,2291.19 2938.42,2287.75 2939.50,2287.50 Z" fill="none" stroke="rgb(0, 0, 0)" stroke-width="24.80" stroke-opacity="1.00" stroke-linejoin="round"/>
<path d="M2186.50,2550.50 C2188.79,2551.41 2190.25,2551.60 2192.06,2550.98 C2194.47,2550.22 2196.49,2550.33 2197.50,2551.50 C2198.73,2553.05 2199.06,2561.65 2198.50,2565.50 C2198.12,2568.14 2197.15,2571.73 2197.15,2571.73 C2197.30,2572.90 2198.83,2573.65 2200.88,2573.76 C2214.27,2574.53 2244.79,2574.78 2256.07,2574.65 C2258.17,2574.64 2259.80,2573.91 2260.14,2572.62 C2260.21,2572.35 2259.50,2566.42 2259.43,2561.52 C2259.28,2531.70 2259.05,2463.79 2258.96,2425.69 C2258.89,2418.33 2258.72,2404.57 2258.62,2398.17 C2258.43,2388.69 2256.86,2372.98 2255.04,2366.29 C2254.50,2364.30 2252.43,2358.05 2250.63,2354.79 C2247.30,2348.82 2236.65,2337.25 2232.03,2333.64 C2229.06,2331.36 2223.46,2328.46 2219.29,2326.87 C2214.29,2325.00 2196.25,2320.11 2190.06,2319.17 C2182.42,2318.04 2169.36,2318.50 2160.74,2319.99 C2156.18,2320.79 2148.72,2322.50 2144.87,2323.73 C2140.59,2325.13 2133.81,2328.16 2129.86,2330.51 C2126.41,2332.58 2120.85,2336.74 2116.51,2340.22 C2112.38,2343.67 2108.18,2347.69 2106.15,2350.41 C2102.96,2354.73 2097.36,2368.95 2096.29,2374.08 C2095.03,2380.29 2093.64,2405.70 2093.60,2406.11 C2093.38,2408.26 2093.91,2409.22 2095.50,2409.50 C2095.79,2409.54 2148.79,2409.60 2149.09,2409.61 C2151.21,2409.65 2152.64,2408.88 2152.84,2407.25 C2152.97,2406.00 2152.56,2397.75 2152.61,2394.59 C2153.36,2368.07 2154.89,2354.98 2155.01,2354.01 C2155.29,2352.10 2156.39,2349.20 2157.44,2348.14 C2158.35,2347.27 2160.24,2347.15 2163.56,2347.34 C2167.31,2347.54 2172.88,2347.85 2179.08,2348.08 C2184.87,2348.38 2189.97,2349.40 2191.50,2351.50 C2192.50,2352.97 2194.46,2359.00 2194.94,2361.92 C2196.17,2369.60 2196.59,2379.66 2196.51,2392.45 C2196.29,2404.63 2195.27,2419.85 2193.45,2423.35 C2191.77,2426.36 2176.53,2433.00 2169.89,2435.75 C2161.88,2438.95 2146.14,2445.38 2139.01,2448.49 C2127.41,2453.85 2116.98,2459.39 2109.03,2464.78 C2107.76,2465.66 2101.86,2469.83 2099.94,2472.68 C2097.46,2476.42 2094.57,2490.99 2094.35,2496.25 C2094.06,2503.54 2093.47,2521.20 2093.85,2527.93 C2094.10,2532.31 2095.06,2539.85 2095.95,2543.80 C2096.84,2547.67 2099.32,2554.67 2100.94,2557.47 C2102.67,2560.40 2107.37,2565.60 2110.33,2567.73 C2113.39,2569.88 2119.92,2573.03 2124.64,2574.67 C2128.65,2576.04 2136.61,2578.35 2137.50,2578.50 C2142.91,2579.39 2146.43,2578.49 2151.50,2576.50 C2154.53,2575.14 2161.98,2571.80 2164.38,2570.08 C2169.39,2566.43 2176.26,2555.71 2178.05,2553.21 C2179.10,2551.76 2180.50,2550.89 2181.79,2551.01 C2182.71,2551.09 2185.76,2551.47 2187.98,2550.50 C2190.11,2549.54 2192.35,2547.83 2193.22,2546.50 C2194.94,2543.68 2195.62,2537.64 2195.73,2535.17 C2196.14,2519.66 2196.76,2485.37 2196.96,2466.60 C2196.88,2459.53 2196.63,2448.80 2196.50,2448.50 C2195.96,2447.37 2194.57,2447.10 2191.74,2447.39 C2188.64,2447.74 2180.53,2447.14 2180.04,2447.23 C2177.16,2447.82 2170.99,2452.22 2167.99,2454.99 C2166.14,2456.71 2159.51,2463.40 2157.72,2466.33 C2156.07,2469.09 2153.73,2482.17 2153.37,2491.55 C2153.10,2499.35 2152.67,2514.54 2152.51,2521.92 C2152.45,2525.54 2153.34,2530.87 2153.50,2532.50 C2153.67,2535.00 2154.16,2540.12 2155.83,2543.73 C2157.04,2546.24 2159.19,2548.43 2161.50,2549.50 C2163.68,2550.45 2173.48,2550.48 2175.10,2550.46 C2177.08,2550.39 2178.04,2550.65 2179.50,2551.50" fill="none" stroke="rgb(0, 0, 0)" stroke-width="24.80" stroke-opacity="1.00" stroke-linejoin="round"/>
<path d="M2597.50,2318.50 C2601.66,2318.05 2608.38,2318.24 2612.32,2318.89 C2621.24,2320.42 2633.70,2323.28 2637.82,2324.92 C2643.10,2327.04 2657.05,2335.35 2663.01,2339.61 C2666.07,2341.83 2671.34,2346.88 2673.78,2350.15 C2677.85,2355.70 2683.30,2366.94 2685.29,2374.28 C2687.86,2384.17 2690.14,2395.92 2690.80,2405.28 C2691.70,2420.84 2691.53,2443.43 2691.50,2443.50 C2691.00,2444.61 2687.43,2444.50 2682.25,2444.45 C2647.03,2444.34 2585.80,2444.39 2585.50,2444.50 C2584.44,2444.93 2584.51,2448.64 2584.51,2453.57 C2584.41,2486.46 2584.50,2529.87 2585.04,2534.46 C2585.54,2538.54 2588.14,2545.91 2588.50,2546.50 C2589.51,2548.05 2591.75,2549.16 2594.50,2549.50 C2594.81,2549.54 2607.18,2550.34 2609.28,2550.44 C2614.56,2550.66 2621.19,2550.08 2623.96,2548.82 C2626.53,2547.60 2629.59,2542.70 2630.53,2539.51 C2632.08,2533.94 2632.62,2519.10 2632.58,2507.48 C2632.47,2499.07 2632.42,2484.88 2632.42,2484.74 C2632.40,2482.76 2632.82,2481.77 2633.97,2481.54 C2634.11,2481.52 2687.70,2481.43 2688.00,2481.43 C2690.24,2481.40 2691.24,2481.81 2691.47,2483.01 C2691.53,2483.40 2691.18,2503.75 2689.93,2511.35 C2688.51,2519.79 2684.12,2535.71 2681.37,2539.99 C2679.17,2543.35 2666.03,2558.26 2663.06,2561.16 C2660.35,2563.78 2654.70,2567.67 2651.20,2569.42 C2647.42,2571.28 2643.09,2573.08 2638.20,2574.86 C2633.84,2576.40 2627.26,2578.00 2622.50,2578.50 C2617.01,2579.05 2601.47,2578.57 2593.55,2577.85 C2585.69,2577.07 2574.02,2573.18 2567.54,2570.14 C2564.32,2568.59 2556.98,2565.01 2554.39,2563.47 C2550.74,2561.28 2545.53,2557.11 2542.80,2554.07 C2541.41,2552.51 2534.74,2543.86 2534.50,2543.50 C2531.36,2538.90 2528.22,2530.76 2525.25,2522.01 C2523.04,2515.37 2521.51,2498.48 2521.10,2487.93 C2520.76,2472.88 2520.81,2437.25 2520.96,2419.27 C2521.12,2412.32 2521.62,2395.52 2522.45,2388.66 C2523.07,2383.64 2526.75,2370.54 2528.96,2364.92 C2530.32,2361.52 2533.31,2355.65 2535.28,2352.95 C2540.16,2346.39 2548.56,2337.15 2554.04,2333.17 C2559.50,2329.28 2574.91,2323.66 2582.67,2321.56 C2586.75,2320.47 2594.83,2318.81 2597.50,2318.50 Z" fill="none" stroke="rgb(0, 0, 0)" stroke-width="24.80" stroke-opacity="1.00" stroke-linejoin="round"/>
<path d="M2800.50,2318.50 C2804.28,2318.06 2811.64,2317.91 2814.68,2318.22 C2821.62,2318.98 2835.33,2323.18 2844.97,2326.58 C2849.35,2328.20 2855.85,2331.01 2859.57,2332.89 C2863.20,2334.76 2870.07,2339.89 2872.70,2343.13 C2874.20,2345.03 2878.63,2351.58 2880.18,2354.57 C2881.87,2357.89 2883.88,2363.70 2884.50,2367.50 C2885.37,2373.06 2885.65,2389.13 2885.50,2389.50 C2885.01,2390.55 2881.13,2390.49 2875.96,2390.48 C2859.02,2390.58 2836.17,2390.57 2835.90,2390.58 C2833.77,2390.60 2832.71,2390.16 2832.48,2388.99 C2832.45,2388.78 2832.05,2366.92 2831.70,2359.36 C2831.60,2357.09 2831.05,2354.04 2830.34,2352.61 C2829.86,2351.67 2828.00,2350.10 2826.86,2349.33 C2824.59,2347.94 2819.66,2347.42 2813.88,2347.40 C2807.31,2347.51 2801.24,2347.87 2797.38,2348.65 C2795.55,2349.05 2792.12,2350.58 2791.02,2351.65 C2789.74,2352.93 2788.70,2359.05 2787.93,2361.72 C2787.54,2363.07 2788.56,2397.82 2788.55,2398.31 C2788.50,2401.40 2790.21,2404.90 2792.68,2408.11 C2795.26,2411.37 2800.74,2416.07 2803.78,2418.06 C2807.89,2420.70 2848.03,2442.96 2857.84,2448.78 C2861.24,2450.87 2868.26,2455.57 2869.50,2456.50 C2874.61,2460.36 2879.28,2465.24 2881.31,2468.56 C2884.84,2474.45 2889.29,2489.03 2890.50,2494.50 C2891.97,2501.27 2891.38,2510.22 2889.84,2522.24 C2889.12,2527.56 2887.44,2534.90 2886.02,2538.79 C2884.61,2542.59 2880.68,2549.45 2878.32,2552.47 C2876.08,2555.29 2870.21,2560.99 2867.35,2563.29 C2864.25,2565.76 2858.22,2569.55 2854.66,2571.22 C2849.20,2573.72 2833.27,2577.75 2825.71,2578.56 C2822.53,2578.89 2815.03,2579.29 2811.93,2579.43 C2808.39,2579.60 2791.31,2576.49 2788.86,2575.67 C2777.31,2571.89 2765.80,2567.66 2759.50,2563.50 C2755.92,2561.10 2749.92,2555.54 2747.32,2552.23 C2744.98,2549.21 2740.84,2542.46 2739.50,2539.50 C2737.91,2535.90 2736.24,2529.60 2735.70,2525.24 C2734.51,2515.60 2733.20,2500.16 2733.50,2499.50 C2734.04,2498.44 2737.89,2498.51 2743.04,2498.52 C2759.99,2498.42 2782.84,2498.43 2783.10,2498.42 C2785.23,2498.40 2786.33,2498.84 2786.55,2500.00 C2786.57,2500.11 2787.14,2524.21 2787.44,2528.57 C2787.63,2531.26 2788.64,2540.37 2789.78,2543.89 C2790.40,2545.73 2792.27,2547.61 2793.89,2548.31 C2797.06,2549.56 2804.30,2550.58 2808.24,2550.77 C2811.88,2550.93 2820.20,2550.61 2823.75,2549.41 C2825.43,2548.82 2828.11,2547.31 2829.64,2546.18 C2830.96,2545.16 2832.43,2543.29 2832.83,2542.03 C2833.21,2540.77 2834.51,2515.56 2834.57,2511.91 C2834.64,2506.88 2834.22,2500.13 2833.45,2496.07 C2832.77,2492.61 2830.45,2485.98 2829.50,2484.50 C2828.47,2482.96 2826.56,2481.13 2825.07,2480.33 C2815.88,2475.68 2780.25,2454.83 2769.50,2447.89 C2761.61,2442.65 2749.97,2433.64 2745.51,2428.84 C2743.10,2426.20 2738.86,2419.66 2737.49,2416.08 C2735.24,2410.08 2731.60,2394.10 2731.27,2388.53 C2730.94,2382.13 2733.65,2369.28 2736.71,2358.36 C2738.26,2353.17 2740.30,2347.64 2741.73,2345.51 C2743.11,2343.50 2747.22,2339.88 2751.25,2336.84 C2755.79,2333.54 2760.70,2330.31 2764.57,2328.35 C2775.22,2323.01 2798.14,2318.78 2800.50,2318.50 Z" fill="none" stroke="rgb(0, 0, 0)" stroke-width="24.80" stroke-opacity="1.00" stroke-linejoin="round"/>
<path d="M3134.50,2318.50 C3138.66,2318.05 3145.38,2318.24 3149.32,2318.89 C3158.24,2320.42 3170.70,2323.28 3174.82,2324.92 C3180.10,2327.04 3194.05,2335.35 3200.01,2339.61 C3203.07,2341.83 3208.34,2346.88 3210.78,2350.15 C3214.85,2355.70 3220.30,2366.94 3222.29,2374.28 C3224.86,2384.17 3227.14,2395.92 3227.80,2405.28 C3228.70,2420.84 3228.53,2443.43 3228.50,2443.50 C3228.00,2444.61 3224.43,2444.50 3219.25,2444.45 C3184.03,2444.34 3122.80,2444.39 3122.50,2444.50 C3121.44,2444.93 3121.51,2448.64 3121.51,2453.57 C3121.41,2486.46 3121.50,2529.87 3122.04,2534.46 C3122.54,2538.54 3125.14,2545.91 3125.50,2546.50 C3126.51,2548.05 3128.75,2549.16 3131.50,2549.50 C3131.81,2549.54 3144.18,2550.34 3146.28,2550.44 C3151.56,2550.66 3158.19,2550.08 3160.96,2548.82 C3163.53,2547.60 3166.59,2542.70 3167.53,2539.51 C3169.08,2533.94 3169.62,2519.10 3169.58,2507.48 C3169.47,2499.07 3169.42,2484.88 3169.42,2484.74 C3169.40,2482.76 3169.82,2481.77 3170.97,2481.54 C3171.11,2481.52 3224.70,2481.43 3225.00,2481.43 C3227.24,2481.40 3228.24,2481.81 3228.47,2483.01 C3228.53,2483.40 3228.18,2503.75 3226.93,2511.35 C3225.51,2519.79 3221.12,2535.71 3218.37,2539.99 C3216.17,2543.35 3203.03,2558.26 3200.06,2561.16 C3197.35,2563.78 3191.70,2567.67 3188.20,2569.42 C3184.42,2571.28 3180.09,2573.08 3175.20,2574.86 C3170.84,2576.40 3164.26,2578.00 3159.50,2578.50 C3154.01,2579.05 3138.47,2578.57 3130.55,2577.85 C3122.69,2577.07 3111.02,2573.18 3104.54,2570.14 C3101.32,2568.59 3093.98,2565.01 3091.39,2563.47 C3087.74,2561.28 3082.53,2557.11 3079.80,2554.07 C3078.41,2552.51 3071.74,2543.86 3071.50,2543.50 C3068.36,2538.90 3065.22,2530.76 3062.25,2522.01 C3060.04,2515.37 3058.51,2498.48 3058.10,2487.93 C3057.76,2472.88 3057.81,2437.25 3057.96,2419.27 C3058.12,2412.32 3058.62,2395.52 3059.45,2388.66 C3060.07,2383.64 3063.75,2370.54 3065.96,2364.92 C3067.32,2361.52 3070.31,2355.65 3072.28,2352.95 C3077.16,2346.39 3085.56,2337.15 3091.04,2333.17 C3096.50,2329.28 3111.91,2323.66 3119.67,2321.56 C3123.75,2320.47 3131.83,2318.81 3134.50,2318.50 Z" fill="none" stroke="rgb(0, 0, 0)" stroke-width="24.80" stroke-opacity="1.00" stroke-linejoin="round"/>
<path d="M1949.50,2323.50 C1950.15,2323.11 2008.79,2323.16 2009.50,2323.50 C2010.32,2323.94 2009.71,2328.15 2009.50,2329.50 C2009.39,2330.19 2009.26,2338.05 2009.39,2344.04 C2009.51,2350.59 2009.45,2354.89 2010.50,2355.50 C2010.74,2355.62 2028.23,2355.65 2028.50,2355.50 C2028.69,2355.39 2032.75,2347.51 2034.61,2345.03 C2038.85,2339.45 2054.62,2325.60 2056.50,2324.50 C2057.76,2323.80 2060.13,2323.72 2060.50,2324.50 C2061.12,2325.98 2059.60,2394.28 2059.50,2394.50 C2059.37,2394.77 2054.27,2394.40 2049.16,2395.26 C2045.39,2395.92 2038.29,2397.06 2034.44,2398.02 C2030.15,2399.13 2026.15,2401.22 2022.69,2404.04 C2021.07,2405.41 2018.84,2407.71 2017.91,2409.12 C2015.95,2412.16 2014.31,2418.22 2013.64,2422.50 C2012.37,2431.43 2011.69,2468.88 2011.49,2487.44 C2011.59,2522.14 2011.56,2573.35 2011.50,2573.50 C2011.03,2574.55 2007.19,2574.49 2001.88,2574.48 C1983.97,2574.58 1952.31,2574.56 1951.99,2574.57 C1949.77,2574.60 1948.73,2574.18 1948.51,2572.99 C1948.50,2572.93 1948.70,2485.89 1948.76,2448.01 C1948.74,2410.88 1948.56,2331.01 1948.50,2330.50 C1948.11,2326.40 1948.33,2324.27 1949.50,2323.50 Z" fill="none" stroke="rgb(0, 0, 0)" stroke-width="24.80" stroke-opacity="1.00" stroke-linejoin="round"/>
<path d="M3275.50,2323.50 C3276.15,2323.11 3334.79,2323.16 3335.50,2323.50 C3336.32,2323.94 3335.71,2328.15 3335.50,2329.50 C3335.39,2330.19 3335.26,2338.05 3335.39,2344.04 C3335.51,2350.59 3335.45,2354.89 3336.50,2355.50 C3336.74,2355.62 3354.23,2355.65 3354.50,2355.50 C3354.69,2355.39 3358.75,2347.51 3360.61,2345.03 C3364.85,2339.45 3380.62,2325.60 3382.50,2324.50 C3383.76,2323.80 3386.13,2323.72 3386.50,2324.50 C3387.12,2325.98 3385.60,2394.28 3385.50,2394.50 C3385.37,2394.77 3380.27,2394.40 3375.16,2395.26 C3371.39,2395.92 3364.29,2397.06 3360.44,2398.02 C3356.15,2399.13 3352.15,2401.22 3348.69,2404.04 C3347.07,2405.41 3344.84,2407.71 3343.91,2409.12 C3341.95,2412.16 3340.31,2418.22 3339.64,2422.50 C3338.37,2431.43 3337.69,2468.88 3337.49,2487.44 C3337.59,2522.14 3337.56,2573.35 3337.50,2573.50 C3337.03,2574.55 3333.19,2574.49 3327.88,2574.48 C3309.97,2574.58 3278.31,2574.56 3277.99,2574.57 C3275.77,2574.60 3274.73,2574.18 3274.51,2572.99 C3274.50,2572.93 3274.70,2485.89 3274.76,2448.01 C3274.74,2410.88 3274.56,2331.01 3274.50,2330.50 C3274.11,2326.40 3274.33,2324.27 3275.50,2323.50 Z" fill="none" stroke="rgb(0, 0, 0)" stroke-width="24.80" stroke-opacity="1.00" stroke-linejoin="round"/>
<path d="M2379.50,2347.50 C2380.53,2347.31 2388.80,2347.09 2394.85,2347.22 C2400.92,2347.43 2406.25,2348.13 2407.80,2349.49 C2409.46,2351.05 2411.73,2357.25 2412.27,2359.52 C2413.44,2364.48 2413.66,2378.78 2413.73,2384.90 C2413.72,2420.06 2413.34,2489.11 2412.97,2523.01 C2412.79,2528.46 2412.43,2539.15 2411.50,2541.50 C2410.92,2542.75 2409.14,2546.57 2408.33,2547.24 C2406.88,2548.40 2402.47,2549.82 2400.46,2550.02 C2394.09,2550.50 2377.98,2549.60 2377.50,2549.50 C2374.76,2548.86 2372.28,2547.22 2371.50,2545.50 C2370.24,2542.52 2369.43,2532.58 2369.06,2524.21 C2368.51,2508.91 2368.43,2426.40 2368.45,2390.54 C2368.49,2368.94 2369.20,2356.30 2370.50,2353.50 C2371.17,2352.19 2373.51,2349.51 2374.89,2348.87 C2376.09,2348.33 2377.63,2347.88 2379.50,2347.50 Z" fill="none" stroke="rgb(0, 0, 0)" stroke-width="24.80" stroke-opacity="1.00" stroke-linejoin="round"/>
<path d="M2595.50,2347.50 C2595.72,2347.42 2608.81,2347.20 2610.43,2347.21 C2614.76,2347.26 2622.29,2348.44 2624.53,2349.96 C2625.69,2350.80 2626.55,2352.65 2626.78,2354.57 C2627.48,2361.58 2628.75,2417.86 2628.50,2418.50 C2628.03,2419.59 2623.76,2419.47 2618.83,2419.35 C2610.26,2419.22 2587.05,2418.66 2586.86,2418.66 C2584.73,2418.61 2583.93,2418.19 2584.03,2416.96 C2584.70,2410.77 2585.34,2362.68 2585.95,2357.67 C2586.19,2355.78 2586.71,2353.81 2587.37,2352.16 C2587.93,2350.91 2589.78,2349.61 2591.82,2349.03 C2592.70,2348.79 2593.68,2348.90 2594.50,2348.50 C2594.93,2348.31 2595.06,2347.67 2595.50,2347.50 Z" fill="none" stroke="rgb(0, 0, 0)" stroke-width="24.80" stroke-opacity="1.00" stroke-linejoin="round"/>
<path d="M3132.50,2347.50 C3132.72,2347.42 3145.81,2347.20 3147.43,2347.21 C3151.76,2347.26 3159.29,2348.44 3161.53,2349.96 C3162.69,2350.80 3163.55,2352.65 3163.78,2354.57 C3164.48,2361.58 3165.75,2417.86 3165.50,2418.50 C3165.03,2419.59 3160.76,2419.47 3155.83,2419.35 C3147.26,2419.22 3124.05,2418.66 3123.86,2418.66 C3121.73,2418.61 3120.93,2418.19 3121.03,2416.96 C3121.70,2410.77 3122.34,2362.68 3122.95,2357.67 C3123.19,2355.78 3123.71,2353.81 3124.37,2352.16 C3124.93,2350.91 3126.78,2349.61 3128.82,2349.03 C3129.70,2348.79 3130.68,2348.90 3131.50,2348.50 C3131.93,2348.31 3132.06,2347.67 3132.50,2347.50 Z" fill="none" stroke="rgb(0, 0, 0)" stroke-width="24.80" stroke-opacity="1.00" stroke-linejoin="round"/>
</g>
</svg>
